<svg width="340.381" height="89.16" viewBox="0 0 340.381 89.16" xmlns="http://www.w3.org/2000/svg"><g id="svgGroup" stroke-linecap="round" fill-rule="evenodd" font-size="9pt" stroke="#454360" stroke-width="0.25mm" fill="#454360" style="stroke:#454360;stroke-width:0.25mm;fill:#454360"><path d="M 321.533 89.16 L 315.332 85.791 A 43.26 43.26 0 0 0 316.769 82.859 A 54.741 54.741 0 0 0 317.822 80.322 A 68.528 68.528 0 0 0 319.456 75.575 A 77.566 77.566 0 0 0 319.946 73.901 Q 320.898 70.508 321.655 66.895 A 115.981 115.981 0 0 0 322.925 59.741 Q 323.438 56.201 323.706 52.856 A 86.282 86.282 0 0 0 323.923 49.24 A 68.597 68.597 0 0 0 323.975 46.631 A 56.376 56.376 0 0 0 323.917 44.146 A 68.872 68.872 0 0 0 323.828 42.554 A 30.675 30.675 0 0 0 323.218 38.208 A 26.926 26.926 0 0 0 321.973 34.033 A 12.517 12.517 0 0 0 320.512 31.305 A 11.337 11.337 0 0 0 319.897 30.518 A 10.022 10.022 0 0 0 316.772 28.076 A 8.382 8.382 0 0 0 314.4 27.307 A 11.416 11.416 0 0 0 312.451 27.148 A 9.254 9.254 0 0 0 309.891 27.491 A 7.932 7.932 0 0 0 308.105 28.247 Q 306.201 29.346 304.736 31.128 Q 303.271 32.91 302.222 35.205 Q 301.172 37.5 300.513 39.917 Q 299.854 42.334 299.561 44.678 Q 299.298 46.774 299.271 48.48 A 24.497 24.497 0 0 0 299.268 48.877 L 299.268 77.148 L 282.715 77.148 L 282.715 20.752 L 289.063 20.752 L 296.631 33.887 A 26.77 26.77 0 0 1 300.049 27.93 A 22.931 22.931 0 0 1 304.687 23.34 A 20.116 20.116 0 0 1 310.425 20.41 A 21.101 21.101 0 0 1 315.548 19.441 A 24.939 24.939 0 0 1 317.236 19.385 A 30.568 30.568 0 0 1 322.074 19.749 Q 324.906 20.203 327.288 21.223 A 19.213 19.213 0 0 1 327.441 21.289 A 20.113 20.113 0 0 1 333.237 25.078 A 18.868 18.868 0 0 1 334.668 26.587 A 21.678 21.678 0 0 1 338.382 32.94 A 25.677 25.677 0 0 1 338.965 34.644 A 32.913 32.913 0 0 1 340.243 41.459 A 40.066 40.066 0 0 1 340.381 44.824 A 51.988 51.988 0 0 1 339.662 53.289 A 61.369 61.369 0 0 1 338.989 56.738 A 72.803 72.803 0 0 1 335.107 68.896 Q 332.617 74.854 329.15 80.103 A 51.317 51.317 0 0 1 324.306 86.372 A 43.631 43.631 0 0 1 321.533 89.16 Z M 155.225 64.893 L 147.9 77.148 L 141.553 77.148 L 141.553 0 L 158.057 0 L 158.057 27.49 A 19.221 19.221 0 0 1 161.901 23.479 A 16.785 16.785 0 0 1 165.112 21.533 A 20.941 20.941 0 0 1 172.799 19.667 A 24.705 24.705 0 0 1 174.17 19.629 A 30.981 30.981 0 0 1 180.588 20.267 A 24.827 24.827 0 0 1 185.693 21.924 A 25.288 25.288 0 0 1 194.066 27.928 A 24.623 24.623 0 0 1 194.287 28.174 A 26.92 26.92 0 0 1 199.264 36.424 A 31.134 31.134 0 0 1 199.658 37.5 A 34.364 34.364 0 0 1 201.468 47.12 A 39.636 39.636 0 0 1 201.514 49.023 Q 201.514 55.176 199.658 60.547 A 28.127 28.127 0 0 1 195.746 68.09 A 26.041 26.041 0 0 1 194.287 69.897 A 25.09 25.09 0 0 1 185.693 76.172 A 25.67 25.67 0 0 1 178.44 78.196 A 32.608 32.608 0 0 1 174.17 78.467 A 19.706 19.706 0 0 1 167.944 77.49 A 19.801 19.801 0 0 1 162.524 74.731 Q 160.059 72.949 158.179 70.459 Q 156.299 67.969 155.225 64.893 Z M 19.385 50.879 L 19.385 77.148 L 0 77.148 L 0 6.836 L 37.988 6.836 Q 42.92 6.836 47.437 8.154 A 24.699 24.699 0 0 1 53.621 10.887 A 22.536 22.536 0 0 1 55.42 12.134 A 19.652 19.652 0 0 1 60.962 18.823 A 18.333 18.333 0 0 1 62.72 24.25 A 24.516 24.516 0 0 1 63.037 28.271 A 21.264 21.264 0 0 1 62.488 33.165 A 19.133 19.133 0 0 1 62.061 34.692 A 20.827 20.827 0 0 1 59.351 40.186 A 23.685 23.685 0 0 1 55.273 44.678 A 24.478 24.478 0 0 1 50.146 48.047 A 27.785 27.785 0 0 1 44.263 50.146 A 27.202 27.202 0 0 1 37.988 50.879 L 19.385 50.879 Z M 127.783 20.752 L 127.783 77.148 L 111.279 77.148 L 111.279 70.41 A 19.328 19.328 0 0 1 107.179 74.583 A 17.241 17.241 0 0 1 104.224 76.343 A 20.756 20.756 0 0 1 96.424 78.239 A 24.459 24.459 0 0 1 95.166 78.271 A 30.981 30.981 0 0 1 88.748 77.633 A 24.827 24.827 0 0 1 83.643 75.977 A 25.09 25.09 0 0 1 75.049 69.702 A 27.221 27.221 0 0 1 70.04 61.346 A 31.324 31.324 0 0 1 69.678 60.352 A 34.364 34.364 0 0 1 67.868 50.732 A 39.636 39.636 0 0 1 67.822 48.828 Q 67.822 42.676 69.678 37.305 A 28.127 28.127 0 0 1 73.59 29.762 A 26.041 26.041 0 0 1 75.049 27.954 A 25.09 25.09 0 0 1 83.643 21.68 A 25.67 25.67 0 0 1 90.896 19.656 A 32.608 32.608 0 0 1 95.166 19.385 A 19.706 19.706 0 0 1 101.392 20.361 A 19.801 19.801 0 0 1 106.812 23.12 A 20.135 20.135 0 0 1 111.157 27.417 A 20.632 20.632 0 0 1 114.111 33.008 L 121.436 20.752 L 127.783 20.752 Z M 268.945 20.752 L 268.945 77.148 L 252.441 77.148 L 252.441 70.41 A 19.328 19.328 0 0 1 248.341 74.583 A 17.241 17.241 0 0 1 245.386 76.343 A 20.756 20.756 0 0 1 237.586 78.239 A 24.459 24.459 0 0 1 236.328 78.271 A 30.981 30.981 0 0 1 229.911 77.633 A 24.827 24.827 0 0 1 224.805 75.977 A 25.09 25.09 0 0 1 216.211 69.702 A 27.221 27.221 0 0 1 211.202 61.346 A 31.324 31.324 0 0 1 210.84 60.352 A 34.364 34.364 0 0 1 209.03 50.732 A 39.636 39.636 0 0 1 208.984 48.828 Q 208.984 42.676 210.84 37.305 A 28.127 28.127 0 0 1 214.752 29.762 A 26.041 26.041 0 0 1 216.211 27.954 A 25.09 25.09 0 0 1 224.805 21.68 A 25.67 25.67 0 0 1 232.059 19.656 A 32.608 32.608 0 0 1 236.328 19.385 A 19.706 19.706 0 0 1 242.554 20.361 A 19.801 19.801 0 0 1 247.974 23.12 A 20.135 20.135 0 0 1 252.319 27.417 A 20.632 20.632 0 0 1 255.273 33.008 L 262.598 20.752 L 268.945 20.752 Z M 111.182 48.828 A 49.251 49.251 0 0 0 111.078 45.691 A 58.011 58.011 0 0 0 110.962 44.189 A 37.317 37.317 0 0 0 110.205 39.355 Q 109.668 36.963 108.716 34.79 A 14.693 14.693 0 0 0 106.367 31.038 A 13.937 13.937 0 0 0 106.274 30.933 Q 104.785 29.248 102.686 28.271 A 10.252 10.252 0 0 0 99.951 27.456 A 13.735 13.735 0 0 0 97.803 27.295 A 13.033 13.033 0 0 0 95.431 27.5 A 9.543 9.543 0 0 0 92.969 28.296 Q 90.918 29.297 89.453 30.981 A 14.704 14.704 0 0 0 87.251 34.389 A 16.708 16.708 0 0 0 87.036 34.863 Q 86.084 37.061 85.547 39.453 A 37.391 37.391 0 0 0 84.79 44.263 A 54.132 54.132 0 0 0 84.601 47.179 A 45.06 45.06 0 0 0 84.57 48.828 A 47.674 47.674 0 0 0 84.656 51.628 A 58.063 58.063 0 0 0 84.79 53.418 A 37.317 37.317 0 0 0 85.547 58.252 Q 86.084 60.645 87.036 62.842 A 15.178 15.178 0 0 0 88.922 66.074 A 13.89 13.89 0 0 0 89.453 66.724 A 10.998 10.998 0 0 0 92.969 69.409 A 9.582 9.582 0 0 0 95.508 70.219 A 13.107 13.107 0 0 0 97.803 70.41 A 10.485 10.485 0 0 0 100.342 70.114 A 8.66 8.66 0 0 0 102.319 69.36 A 11.711 11.711 0 0 0 105.786 66.553 A 16.971 16.971 0 0 0 108.037 63.103 A 19.154 19.154 0 0 0 108.301 62.549 A 29.147 29.147 0 0 0 109.961 57.91 A 35.595 35.595 0 0 0 110.889 53.149 A 41.141 41.141 0 0 0 111.108 50.885 A 30.463 30.463 0 0 0 111.182 48.828 Z M 252.344 48.828 A 49.251 49.251 0 0 0 252.24 45.691 A 58.011 58.011 0 0 0 252.124 44.189 A 37.317 37.317 0 0 0 251.367 39.355 Q 250.83 36.963 249.878 34.79 A 14.693 14.693 0 0 0 247.529 31.038 A 13.937 13.937 0 0 0 247.437 30.933 Q 245.947 29.248 243.848 28.271 A 10.252 10.252 0 0 0 241.113 27.456 A 13.735 13.735 0 0 0 238.965 27.295 A 13.033 13.033 0 0 0 236.593 27.5 A 9.543 9.543 0 0 0 234.131 28.296 Q 232.08 29.297 230.615 30.981 A 14.704 14.704 0 0 0 228.413 34.389 A 16.708 16.708 0 0 0 228.198 34.863 Q 227.246 37.061 226.709 39.453 A 37.391 37.391 0 0 0 225.952 44.263 A 54.132 54.132 0 0 0 225.763 47.179 A 45.06 45.06 0 0 0 225.732 48.828 A 47.674 47.674 0 0 0 225.818 51.628 A 58.063 58.063 0 0 0 225.952 53.418 A 37.317 37.317 0 0 0 226.709 58.252 Q 227.246 60.645 228.198 62.842 A 15.178 15.178 0 0 0 230.084 66.074 A 13.89 13.89 0 0 0 230.615 66.724 A 10.998 10.998 0 0 0 234.131 69.409 A 9.582 9.582 0 0 0 236.67 70.219 A 13.107 13.107 0 0 0 238.965 70.41 A 10.485 10.485 0 0 0 241.504 70.114 A 8.66 8.66 0 0 0 243.481 69.36 A 11.711 11.711 0 0 0 246.948 66.553 A 16.971 16.971 0 0 0 249.199 63.103 A 19.154 19.154 0 0 0 249.463 62.549 A 29.147 29.147 0 0 0 251.123 57.91 A 35.595 35.595 0 0 0 252.051 53.149 A 41.141 41.141 0 0 0 252.271 50.885 A 30.463 30.463 0 0 0 252.344 48.828 Z M 184.766 49.023 A 47.192 47.192 0 0 0 184.68 46.233 A 56.636 56.636 0 0 0 184.546 44.458 A 37.391 37.391 0 0 0 183.789 39.648 Q 183.252 37.256 182.3 35.059 A 15.178 15.178 0 0 0 180.414 31.826 A 13.89 13.89 0 0 0 179.883 31.177 A 10.998 10.998 0 0 0 176.367 28.491 A 9.582 9.582 0 0 0 173.828 27.682 A 13.107 13.107 0 0 0 171.533 27.49 A 10.485 10.485 0 0 0 168.994 27.787 A 8.66 8.66 0 0 0 167.017 28.54 A 11.711 11.711 0 0 0 163.55 31.348 A 16.971 16.971 0 0 0 161.299 34.798 A 19.154 19.154 0 0 0 161.035 35.352 A 29.147 29.147 0 0 0 159.375 39.99 A 35.758 35.758 0 0 0 158.447 44.727 A 40.163 40.163 0 0 0 158.228 46.973 A 30.195 30.195 0 0 0 158.154 49.023 A 49.251 49.251 0 0 0 158.258 52.16 A 58.011 58.011 0 0 0 158.374 53.662 A 38.13 38.13 0 0 0 159.131 58.521 Q 159.668 60.938 160.62 63.11 A 14.693 14.693 0 0 0 162.969 66.862 A 13.937 13.937 0 0 0 163.062 66.968 Q 164.551 68.652 166.626 69.629 A 9.93 9.93 0 0 0 169.161 70.412 A 13.816 13.816 0 0 0 171.533 70.605 A 12.661 12.661 0 0 0 174.027 70.371 A 9.7 9.7 0 0 0 176.343 69.604 A 10.92 10.92 0 0 0 179.883 66.919 A 14.477 14.477 0 0 0 181.99 63.694 A 16.647 16.647 0 0 0 182.3 63.013 Q 183.252 60.791 183.789 58.398 A 37.391 37.391 0 0 0 184.546 53.589 A 54.132 54.132 0 0 0 184.735 50.673 A 45.06 45.06 0 0 0 184.766 49.023 Z M 29.59 13.721 L 19.385 13.721 L 19.385 44.238 L 29.59 44.238 Q 32.853 44.238 35.267 43.313 A 11.046 11.046 0 0 0 35.913 43.042 A 11.359 11.359 0 0 0 39.472 40.531 A 10.876 10.876 0 0 0 40.186 39.697 A 13.683 13.683 0 0 0 42.235 35.9 A 16.413 16.413 0 0 0 42.627 34.644 A 22.616 22.616 0 0 0 43.298 30.793 A 28.137 28.137 0 0 0 43.408 28.271 A 21.592 21.592 0 0 0 43.001 23.949 Q 42.468 21.337 41.233 19.317 A 12.043 12.043 0 0 0 39.966 17.603 A 10.878 10.878 0 0 0 34.84 14.418 Q 32.528 13.721 29.59 13.721 Z" vector-effect="non-scaling-stroke"/></g></svg>