<svg width="63.037" height="70.313" viewBox="0 0 63.037 70.313" xmlns="http://www.w3.org/2000/svg"><g id="svgGroup" stroke-linecap="round" fill-rule="evenodd" font-size="9pt" stroke="#ffffff" stroke-width="0.25mm" fill="#ffffff" style="stroke:#ffffff;stroke-width:0.25mm;fill:#ffffff"><path d="M 19.385 44.043 L 19.385 70.313 L 0 70.313 L 0 0 L 37.988 0 Q 42.92 0 47.437 1.319 A 24.699 24.699 0 0 1 53.621 4.051 A 22.536 22.536 0 0 1 55.42 5.298 A 19.652 19.652 0 0 1 60.962 11.988 A 18.333 18.333 0 0 1 62.72 17.414 A 24.516 24.516 0 0 1 63.037 21.436 A 21.264 21.264 0 0 1 62.488 26.329 A 19.133 19.133 0 0 1 62.061 27.857 A 20.827 20.827 0 0 1 59.351 33.35 A 23.685 23.685 0 0 1 55.273 37.842 A 24.478 24.478 0 0 1 50.146 41.211 A 27.785 27.785 0 0 1 44.263 43.311 A 27.202 27.202 0 0 1 37.988 44.043 L 19.385 44.043 Z M 29.59 6.885 L 19.385 6.885 L 19.385 37.403 L 29.59 37.403 Q 32.853 37.403 35.267 36.477 A 11.046 11.046 0 0 0 35.913 36.206 A 11.359 11.359 0 0 0 39.472 33.695 A 10.876 10.876 0 0 0 40.186 32.862 A 13.683 13.683 0 0 0 42.235 29.064 A 16.413 16.413 0 0 0 42.627 27.808 A 22.616 22.616 0 0 0 43.298 23.957 A 28.137 28.137 0 0 0 43.408 21.436 A 21.592 21.592 0 0 0 43.001 17.113 Q 42.468 14.501 41.233 12.481 A 12.043 12.043 0 0 0 39.966 10.767 A 10.878 10.878 0 0 0 34.84 7.582 Q 32.528 6.885 29.59 6.885 Z" vector-effect="non-scaling-stroke"/></g></svg>